<svg width="30" height="30" viewBox="0 0 30 30" fill="none" xmlns="http://www.w3.org/2000/svg">
    <g filter="url(#filter0_d_1_3688)">
        <path
            d="M14.1459 7.02251C14.5259 6.34084 14.7159 6 15 6C15.2841 6 15.4741 6.34084 15.8541 7.02251L15.9524 7.19887C16.0603 7.39258 16.1143 7.48944 16.1985 7.55334C16.2827 7.61725 16.3875 7.64097 16.5972 7.68841L16.7881 7.73161C17.526 7.89857 17.895 7.98205 17.9828 8.26432C18.0706 8.54659 17.819 8.84072 17.316 9.42898L17.1858 9.58117C17.0429 9.74833 16.9714 9.83191 16.9392 9.93531C16.9071 10.0387 16.9179 10.1502 16.9395 10.3733L16.9592 10.5763C17.0352 11.3612 17.0733 11.7536 16.8435 11.9281C16.6136 12.1025 16.2682 11.9435 15.5773 11.6254L15.3986 11.5431C15.2022 11.4527 15.1041 11.4075 15 11.4075C14.8959 11.4075 14.7978 11.4527 14.6014 11.5431L14.4227 11.6254C13.7318 11.9435 13.3864 12.1025 13.1565 11.9281C12.9267 11.7536 12.9648 11.3612 13.0408 10.5763L13.0605 10.3733C13.0821 10.1502 13.0929 10.0387 13.0608 9.93531C13.0286 9.83191 12.9571 9.74833 12.8142 9.58117L12.684 9.42898C12.181 8.84072 11.9294 8.54659 12.0172 8.26432C12.105 7.98205 12.474 7.89857 13.2119 7.73161L13.4028 7.68841C13.6125 7.64097 13.7173 7.61725 13.8015 7.55334C13.8857 7.48944 13.9397 7.39258 14.0476 7.19887L14.1459 7.02251Z"
            stroke="white" strokeWidth="1.5" />
        <path
            d="M22 9C22 12.866 18.866 16 15 16C11.134 16 8 12.866 8 9C8 5.13401 11.134 2 15 2C18.866 2 22 5.13401 22 9Z"
            stroke="white" strokeWidth="1.5" />
        <path
            d="M15 16.0678L11.2285 19.9728C10.6884 20.5321 10.4184 20.8117 10.1897 20.9084C9.66852 21.1289 9.09042 20.9402 8.81628 20.4602C8.69597 20.2495 8.65848 19.8695 8.5835 19.1095C8.54117 18.6804 8.52 18.4658 8.45575 18.2861C8.31191 17.8838 8.00966 17.5708 7.6211 17.4219C7.44754 17.3554 7.24033 17.3335 6.82589 17.2896C6.09187 17.212 5.72486 17.1732 5.52138 17.0486C5.05772 16.7648 4.87548 16.1662 5.08843 15.6266C5.18188 15.3898 5.45194 15.1102 5.99206 14.5509L8.45575 12"
            stroke="white" strokeWidth="1.5" />
        <path
            d="M15 16.0678L18.7715 19.9728C19.3116 20.5321 19.5816 20.8117 19.8103 20.9084C20.3315 21.1289 20.9096 20.9402 21.1837 20.4602C21.304 20.2495 21.3415 19.8695 21.4165 19.1095C21.4588 18.6804 21.48 18.4658 21.5442 18.2861C21.6881 17.8838 21.9903 17.5708 22.3789 17.4219C22.5525 17.3554 22.7597 17.3335 23.1741 17.2896C23.9081 17.212 24.2751 17.1732 24.4786 17.0486C24.9423 16.7648 25.1245 16.1662 24.9116 15.6266C24.8181 15.3898 24.5481 15.1102 24.0079 14.5509L21.5442 12"
            stroke="white" strokeWidth="1.5" />
    </g>
    <defs>
        <filter id="filter0_d_1_3688" x="-1" y="0" width="32" height="32" filterUnits="userSpaceOnUse"
            color-interpolation-filters="sRGB">
            <feFlood flood-opacity="0" result="BackgroundImageFix" />
            <feColorMatrix in="SourceAlpha" type="matrix" values="0 0 0 0 0 0 0 0 0 0 0 0 0 0 0 0 0 0 127 0"
                result="hardAlpha" />
            <feOffset dy="4" />
            <feGaussianBlur stdDeviation="2" />
            <feComposite in2="hardAlpha" operator="out" />
            <feColorMatrix type="matrix" values="0 0 0 0 0 0 0 0 0 0 0 0 0 0 0 0 0 0 0.25 0" />
            <feBlend mode="normal" in2="BackgroundImageFix" result="effect1_dropShadow_1_3688" />
            <feBlend mode="normal" in="SourceGraphic" in2="effect1_dropShadow_1_3688" result="shape" />
        </filter>
    </defs>
</svg>