<svg width="20" height="14" viewBox="0 0 20 14" fill="none" xmlns="http://www.w3.org/2000/svg">
<path d="M19.3409 2.14453C19.7628 3.62109 19.7628 6.78516 19.7628 6.78516C19.7628 6.78516 19.7628 9.91406 19.3409 11.4258C19.13 12.2695 18.462 12.9023 17.6534 13.1133C16.1417 13.5 10.1652 13.5 10.1652 13.5C10.1652 13.5 4.15344 13.5 2.64172 13.1133C1.83313 12.9023 1.16516 12.2695 0.954224 11.4258C0.532349 9.91406 0.532349 6.78516 0.532349 6.78516C0.532349 6.78516 0.532349 3.62109 0.954224 2.14453C1.16516 1.30078 1.83313 0.632812 2.64172 0.421875C4.15344 0 10.1652 0 10.1652 0C10.1652 0 16.1417 0 17.6534 0.421875C18.462 0.632812 19.13 1.30078 19.3409 2.14453ZM8.19641 9.63281L13.1886 6.78516L8.19641 3.9375V9.63281Z" fill="#001A40"/>
</svg>
