<svg width="22" height="14" viewBox="0 0 22 14" fill="none" xmlns="http://www.w3.org/2000/svg">
<path d="M13.4875 5.80078C13.5227 6.15234 13.593 6.46875 13.593 6.92578C13.593 10.793 10.9914 13.5 7.08906 13.5C3.3625 13.5 0.339063 10.5117 0.339063 6.75C0.339063 3.02344 3.3625 0 7.08906 0C8.91719 0 10.4289 0.667969 11.6242 1.79297L9.79609 3.55078C9.30391 3.05859 8.425 2.49609 7.08906 2.49609C4.80391 2.49609 2.90547 4.39453 2.90547 6.75C2.90547 9.14062 4.80391 11.0391 7.08906 11.0391C9.76094 11.0391 10.7805 9.10547 10.9211 8.12109H7.08906V5.80078H13.4875ZM19.9914 6.01172H21.9602V7.98047H19.9914V9.94922H18.0227V7.98047H16.0539V6.01172H18.0227V4.07812H19.9914V6.01172Z" fill="#001A40"/>
</svg>
