<svg width="17" height="17" viewBox="0 0 17 17" fill="none" xmlns="http://www.w3.org/2000/svg">
<path d="M3.83782 16.5H0.568286V5.98828H3.83782V16.5ZM2.18547 4.58203C1.16594 4.58203 0.322192 3.70312 0.322192 2.64844C0.322192 1.62891 1.16594 0.785156 2.18547 0.785156C3.24016 0.785156 4.08391 1.62891 4.08391 2.64844C4.08391 3.70312 3.24016 4.58203 2.18547 4.58203ZM16.037 16.5H12.8027V11.4023C12.8027 10.1719 12.7675 8.625 11.08 8.625C9.3925 8.625 9.14641 9.92578 9.14641 11.2969V16.5H5.87688V5.98828H9.00579V7.42969H9.04094C9.49797 6.62109 10.5527 5.74219 12.1347 5.74219C15.4394 5.74219 16.0722 7.92188 16.0722 10.7344V16.5H16.037Z" fill="#001A40"/>
</svg>
